<svg width="182" height="37" viewBox="0 0 182 37" fill="none" xmlns="http://www.w3.org/2000/svg">
<path d="M51.5683 2.20312H62.2324C66.7949 2.20312 70.248 2.84375 72.5917 4.125C74.9355 5.40625 76.1074 7.65625 76.1074 10.875C76.1074 12.1719 75.8964 13.3438 75.4746 14.3906C75.0683 15.4375 74.4746 16.2969 73.6933 16.9688C72.9121 17.6406 71.9589 18.0781 70.8339 18.2812V18.5156C71.9746 18.75 73.0058 19.1562 73.9277 19.7344C74.8496 20.2969 75.5839 21.125 76.1308 22.2188C76.6933 23.2969 76.9746 24.7344 76.9746 26.5312C76.9746 28.6094 76.4667 30.3906 75.4511 31.875C74.4355 33.3594 72.9824 34.5 71.0917 35.2969C69.2167 36.0781 66.9824 36.4688 64.3886 36.4688H51.5683V2.20312ZM58.8339 15.7734H63.0527C65.1621 15.7734 66.623 15.4453 67.4355 14.7891C68.248 14.1172 68.6542 13.1328 68.6542 11.8359C68.6542 10.5234 68.1699 9.58594 67.2011 9.02344C66.248 8.44531 64.7324 8.15625 62.6542 8.15625H58.8339V15.7734ZM58.8339 21.5391V30.4688H63.5683C65.7558 30.4688 67.2792 30.0469 68.1386 29.2031C68.998 28.3594 69.4277 27.2266 69.4277 25.8047C69.4277 24.9609 69.2402 24.2188 68.8652 23.5781C68.4902 22.9375 67.8574 22.4375 66.9667 22.0781C66.0917 21.7188 64.8808 21.5391 63.3339 21.5391H58.8339Z" fill="#004AF7"/>
<path d="M93.9902 9.72656C97.5058 9.72656 100.201 10.4922 102.076 12.0234C103.951 13.5547 104.889 15.8828 104.889 19.0078V36.4688H99.8964L98.5136 32.9062H98.3261C97.5761 33.8438 96.8105 34.6094 96.0292 35.2031C95.248 35.7969 94.3496 36.2344 93.3339 36.5156C92.3183 36.7969 91.0839 36.9375 89.6308 36.9375C88.0839 36.9375 86.6933 36.6406 85.4589 36.0469C84.2402 35.4531 83.2792 34.5469 82.5761 33.3281C81.873 32.0938 81.5214 30.5312 81.5214 28.6406C81.5214 25.8594 82.498 23.8125 84.4511 22.5C86.4042 21.1719 89.3339 20.4375 93.2402 20.2969L97.7871 20.1562V19.0078C97.7871 17.6328 97.4277 16.625 96.7089 15.9844C95.9902 15.3438 94.9902 15.0234 93.7089 15.0234C92.4433 15.0234 91.2011 15.2031 89.9824 15.5625C88.7636 15.9219 87.5449 16.375 86.3261 16.9219L83.9589 12.0938C85.3496 11.3594 86.9042 10.7812 88.623 10.3594C90.3574 9.9375 92.1464 9.72656 93.9902 9.72656ZM97.7871 24.3281L95.0214 24.4219C92.7089 24.4844 91.0996 24.8984 90.1933 25.6641C89.3027 26.4297 88.8574 27.4375 88.8574 28.6875C88.8574 29.7812 89.1777 30.5625 89.8183 31.0312C90.4589 31.4844 91.2949 31.7109 92.3261 31.7109C93.8574 31.7109 95.1464 31.2578 96.1933 30.3516C97.2558 29.4453 97.7871 28.1562 97.7871 26.4844V24.3281Z" fill="#004AF7"/>
<path d="M127.154 9.77344C129.951 9.77344 132.201 10.5391 133.904 12.0703C135.607 13.5859 136.459 16.0234 136.459 19.3828V36.4688H129.311V21.1641C129.311 19.2891 128.967 17.875 128.279 16.9219C127.607 15.9688 126.545 15.4922 125.092 15.4922C122.904 15.4922 121.412 16.2344 120.615 17.7188C119.818 19.2031 119.42 21.3438 119.42 24.1406V36.4688H112.271V10.2656H117.732L118.693 13.6172H119.092C119.654 12.7109 120.35 11.9766 121.178 11.4141C122.021 10.8516 122.951 10.4375 123.967 10.1719C124.998 9.90625 126.06 9.77344 127.154 9.77344Z" fill="#004AF7"/>
<path d="M150.967 0V16.3125C150.967 17.2969 150.928 18.2812 150.85 19.2656C150.771 20.25 150.686 21.2344 150.592 22.2188H150.686C151.17 21.5312 151.662 20.8516 152.162 20.1797C152.678 19.5078 153.225 18.8594 153.803 18.2344L161.139 10.2656H169.201L158.795 21.6328L169.834 36.4688H161.584L154.037 25.8516L150.967 28.3125V36.4688H143.818V0H150.967Z" fill="#004AF7"/>
<path d="M175.483 36.8935C173.801 36.8935 172.358 36.2912 171.154 35.0867C169.949 33.8822 169.347 32.439 169.347 30.7572C169.347 29.0753 169.949 27.6322 171.154 26.4276C172.358 25.2231 173.801 24.6208 175.483 24.6208C177.165 24.6208 178.608 25.2231 179.813 26.4276C181.017 27.6322 181.619 29.0753 181.619 30.7572C181.619 31.8708 181.335 32.8935 180.767 33.8253C180.222 34.7572 179.483 35.5072 178.551 36.0753C177.642 36.6208 176.619 36.8935 175.483 36.8935Z" fill="#36D98D"/>
<path d="M39.2274 10.7805C39.091 9.40547 38.5058 8.33728 37.4717 7.57592C36.4376 6.81456 35.0342 6.43387 33.2615 6.43387C32.0569 6.43387 31.0399 6.60433 30.2104 6.94524C29.3808 7.27478 28.7444 7.73501 28.3013 8.32592C27.8694 8.91683 27.6535 9.58728 27.6535 10.3373C27.6308 10.9623 27.7615 11.5077 28.0456 11.9736C28.341 12.4396 28.7444 12.843 29.2558 13.1839C29.7672 13.5134 30.3581 13.8032 31.0285 14.0532C31.699 14.2918 32.4149 14.4964 33.1763 14.6668L36.3126 15.4168C37.8354 15.7577 39.2331 16.2123 40.5058 16.7805C41.7785 17.3486 42.8808 18.0475 43.8126 18.8771C44.7444 19.7066 45.466 20.6839 45.9774 21.8089C46.5001 22.9339 46.7672 24.2236 46.7785 25.6782C46.7672 27.8146 46.2217 29.6668 45.1422 31.235C44.074 32.7918 42.5285 34.0021 40.5058 34.8657C38.4944 35.718 36.0683 36.1441 33.2274 36.1441C30.4092 36.1441 27.9547 35.7123 25.8638 34.8486C23.7842 33.985 22.1592 32.7066 20.9888 31.0134C19.8297 29.3089 19.2217 27.2009 19.1649 24.6896H26.3069C26.3865 25.86 26.7217 26.8373 27.3126 27.6214C27.9149 28.3941 28.716 28.9793 29.716 29.3771C30.7274 29.7634 31.8694 29.9566 33.1422 29.9566C34.3922 29.9566 35.4774 29.7748 36.3979 29.4111C37.3297 29.0475 38.0513 28.5418 38.5626 27.8941C39.074 27.2464 39.3297 26.5021 39.3297 25.6611C39.3297 24.8771 39.0967 24.218 38.6308 23.6839C38.1763 23.1498 37.5058 22.6952 36.6194 22.3202C35.7444 21.9452 34.6706 21.6043 33.3979 21.2975L29.5967 20.343C26.6535 19.6271 24.3297 18.5077 22.6251 16.985C20.9206 15.4623 20.074 13.4111 20.0854 10.8316C20.074 8.71796 20.6365 6.87137 21.7729 5.29183C22.9206 3.71228 24.4944 2.47933 26.4944 1.59297C28.4944 0.706601 30.7672 0.263419 33.3126 0.263419C35.9035 0.263419 38.1649 0.706601 40.0967 1.59297C42.0399 2.47933 43.5513 3.71228 44.6308 5.29183C45.7104 6.87137 46.2672 8.70092 46.3013 10.7805H39.2274Z" fill="#36D98D"/>
<path d="M16.2672 0.740692H23.5626V25.0816C23.5626 27.3316 23.0569 29.2861 22.0456 30.9452C21.0456 32.6043 19.6535 33.8827 17.8694 34.7805C16.0854 35.6782 14.0115 36.1271 11.6479 36.1271C9.54558 36.1271 7.63649 35.7577 5.92058 35.0191C4.21603 34.2691 2.86376 33.1327 1.86376 31.61C0.863761 30.0759 0.369443 28.1498 0.380807 25.8316H7.7274C7.75012 26.7521 7.93762 27.5418 8.2899 28.2009C8.65353 28.8486 9.14785 29.3486 9.77285 29.7009C10.4092 30.0418 11.1592 30.2123 12.0229 30.2123C12.9319 30.2123 13.699 30.0191 14.324 29.6327C14.9604 29.235 15.4433 28.6555 15.7729 27.8941C16.1024 27.1327 16.2672 26.1952 16.2672 25.0816V0.740692Z" fill="#004AF7"/>
</svg>
