<svg width="182" height="38" viewBox="0 0 182 38" fill="none" xmlns="http://www.w3.org/2000/svg">
<path d="M51.1877 2.73438H61.8518C66.4143 2.73438 69.8674 3.375 72.2111 4.65625C74.5549 5.9375 75.7268 8.1875 75.7268 11.4062C75.7268 12.7031 75.5158 13.875 75.0939 14.9219C74.6877 15.9688 74.0939 16.8281 73.3127 17.5C72.5314 18.1719 71.5783 18.6094 70.4533 18.8125V19.0469C71.5939 19.2812 72.6252 19.6875 73.5471 20.2656C74.4689 20.8281 75.2033 21.6562 75.7502 22.75C76.3127 23.8281 76.5939 25.2656 76.5939 27.0625C76.5939 29.1406 76.0861 30.9219 75.0705 32.4062C74.0549 33.8906 72.6018 35.0312 70.7111 35.8281C68.8361 36.6094 66.6018 37 64.008 37H51.1877V2.73438ZM58.4533 16.3047H62.6721C64.7814 16.3047 66.2424 15.9766 67.0549 15.3203C67.8674 14.6484 68.2736 13.6641 68.2736 12.3672C68.2736 11.0547 67.7893 10.1172 66.8205 9.55469C65.8674 8.97656 64.3518 8.6875 62.2736 8.6875H58.4533V16.3047ZM58.4533 22.0703V31H63.1877C65.3752 31 66.8986 30.5781 67.758 29.7344C68.6174 28.8906 69.0471 27.7578 69.0471 26.3359C69.0471 25.4922 68.8596 24.75 68.4846 24.1094C68.1096 23.4688 67.4768 22.9688 66.5861 22.6094C65.7111 22.25 64.5002 22.0703 62.9533 22.0703H58.4533Z" fill="white"/>
<path d="M93.6096 10.2578C97.1252 10.2578 99.8205 11.0234 101.696 12.5547C103.571 14.0859 104.508 16.4141 104.508 19.5391V37H99.5158L98.133 33.4375H97.9455C97.1955 34.375 96.4299 35.1406 95.6486 35.7344C94.8674 36.3281 93.9689 36.7656 92.9533 37.0469C91.9377 37.3281 90.7033 37.4688 89.2502 37.4688C87.7033 37.4688 86.3127 37.1719 85.0783 36.5781C83.8596 35.9844 82.8986 35.0781 82.1955 33.8594C81.4924 32.625 81.1408 31.0625 81.1408 29.1719C81.1408 26.3906 82.1174 24.3438 84.0705 23.0312C86.0236 21.7031 88.9533 20.9688 92.8596 20.8281L97.4064 20.6875V19.5391C97.4064 18.1641 97.0471 17.1562 96.3283 16.5156C95.6096 15.875 94.6096 15.5547 93.3283 15.5547C92.0627 15.5547 90.8205 15.7344 89.6018 16.0938C88.383 16.4531 87.1643 16.9062 85.9455 17.4531L83.5783 12.625C84.9689 11.8906 86.5236 11.3125 88.2424 10.8906C89.9768 10.4688 91.7658 10.2578 93.6096 10.2578ZM97.4064 24.8594L94.6408 24.9531C92.3283 25.0156 90.7189 25.4297 89.8127 26.1953C88.9221 26.9609 88.4768 27.9688 88.4768 29.2188C88.4768 30.3125 88.7971 31.0938 89.4377 31.5625C90.0783 32.0156 90.9143 32.2422 91.9455 32.2422C93.4768 32.2422 94.7658 31.7891 95.8127 30.8828C96.8752 29.9766 97.4064 28.6875 97.4064 27.0156V24.8594Z" fill="white"/>
<path d="M126.774 10.3047C129.57 10.3047 131.821 11.0703 133.524 12.6016C135.227 14.1172 136.078 16.5547 136.078 19.9141V37H128.93V21.6953C128.93 19.8203 128.586 18.4062 127.899 17.4531C127.227 16.5 126.164 16.0234 124.711 16.0234C122.524 16.0234 121.031 16.7656 120.235 18.25C119.438 19.7344 119.039 21.875 119.039 24.6719V37H111.891V10.7969H117.352L118.313 14.1484H118.711C119.274 13.2422 119.969 12.5078 120.797 11.9453C121.641 11.3828 122.571 10.9688 123.586 10.7031C124.617 10.4375 125.68 10.3047 126.774 10.3047Z" fill="white"/>
<path d="M150.586 0.53125V16.8438C150.586 17.8281 150.547 18.8125 150.469 19.7969C150.391 20.7812 150.305 21.7656 150.211 22.75H150.305C150.789 22.0625 151.281 21.3828 151.781 20.7109C152.297 20.0391 152.844 19.3906 153.422 18.7656L160.758 10.7969H168.821L158.414 22.1641L169.453 37H161.203L153.656 26.3828L150.586 28.8438V37H143.438V0.53125H150.586Z" fill="white"/>
<path d="M175.102 37.4248C173.421 37.4248 171.977 36.8225 170.773 35.6179C169.568 34.4134 168.966 32.9702 168.966 31.2884C168.966 29.6066 169.568 28.1634 170.773 26.9589C171.977 25.7543 173.421 25.152 175.102 25.152C176.784 25.152 178.227 25.7543 179.432 26.9589C180.637 28.1634 181.239 29.6066 181.239 31.2884C181.239 32.402 180.955 33.4248 180.387 34.3566C179.841 35.2884 179.102 36.0384 178.171 36.6066C177.262 37.152 176.239 37.4248 175.102 37.4248Z" fill="#36D98D"/>
<path d="M38.8468 11.3117C38.7104 9.93672 38.1252 8.86853 37.0911 8.10717C36.057 7.34581 34.6536 6.96512 32.8809 6.96512C31.6763 6.96512 30.6593 7.13558 29.8297 7.47649C29.0002 7.80603 28.3638 8.26626 27.9206 8.85717C27.4888 9.44808 27.2729 10.1185 27.2729 10.8685C27.2502 11.4935 27.3809 12.039 27.665 12.5049C27.9604 12.9708 28.3638 13.3742 28.8752 13.7151C29.3866 14.0447 29.9775 14.3344 30.6479 14.5844C31.3184 14.8231 32.0343 15.0276 32.7956 15.1981L35.932 15.9481C37.4547 16.289 38.8525 16.7435 40.1252 17.3117C41.3979 17.8799 42.5002 18.5788 43.432 19.4083C44.3638 20.2379 45.0854 21.2151 45.5968 22.3401C46.1195 23.4651 46.3866 24.7549 46.3979 26.2094C46.3866 28.3458 45.8411 30.1981 44.7616 31.7663C43.6934 33.3231 42.1479 34.5333 40.1252 35.3969C38.1138 36.2492 35.6877 36.6754 32.8468 36.6754C30.0286 36.6754 27.5741 36.2435 25.4831 35.3799C23.4036 34.5163 21.7786 33.2379 20.6081 31.5447C19.4491 29.8401 18.8411 27.7322 18.7843 25.2208H25.9263C26.0059 26.3913 26.3411 27.3685 26.932 28.1526C27.5343 28.9254 28.3354 29.5106 29.3354 29.9083C30.3468 30.2947 31.4888 30.4879 32.7616 30.4879C34.0116 30.4879 35.0968 30.306 36.0172 29.9424C36.9491 29.5788 37.6706 29.0731 38.182 28.4254C38.6934 27.7776 38.9491 27.0333 38.9491 26.1924C38.9491 25.4083 38.7161 24.7492 38.2502 24.2151C37.7956 23.681 37.1252 23.2265 36.2388 22.8515C35.3638 22.4765 34.29 22.1356 33.0172 21.8288L29.2161 20.8742C26.2729 20.1583 23.9491 19.039 22.2445 17.5163C20.54 15.9935 19.6934 13.9424 19.7047 11.3629C19.6934 9.24921 20.2559 7.40262 21.3922 5.82308C22.54 4.24353 24.1138 3.01058 26.1138 2.12422C28.1138 1.23785 30.3866 0.794669 32.932 0.794669C35.5229 0.794669 37.7843 1.23785 39.7161 2.12422C41.6593 3.01058 43.1706 4.24353 44.2502 5.82308C45.3297 7.40262 45.8866 9.23217 45.9206 11.3117H38.8468Z" fill="#36D98D"/>
<path d="M15.8866 1.27194H23.182V25.6129C23.182 27.8629 22.6763 29.8174 21.665 31.4765C20.665 33.1356 19.2729 34.414 17.4888 35.3117C15.7047 36.2094 13.6309 36.6583 11.2672 36.6583C9.16496 36.6583 7.25587 36.289 5.53996 35.5504C3.83542 34.8004 2.48315 33.664 1.48315 32.1413C0.483146 30.6072 -0.0111721 28.681 0.000191522 26.3629H7.34678C7.36951 27.2833 7.55701 28.0731 7.90928 28.7322C8.27292 29.3799 8.76724 29.8799 9.39224 30.2322C10.0286 30.5731 10.7786 30.7435 11.6422 30.7435C12.5513 30.7435 13.3184 30.5504 13.9434 30.164C14.5797 29.7663 15.0627 29.1867 15.3922 28.4254C15.7218 27.664 15.8866 26.7265 15.8866 25.6129V1.27194Z" fill="white"/>
</svg>
